<!-- @license lucide-static v1.8.0 - ISC -->
<!-- SVG Sprite: 6 Department Icons + 5 Prozess Icons -->
<!-- Usage: <svg><use href="/assets/icons/sprite.svg#icon-sales"/></svg> -->
<svg xmlns="http://www.w3.org/2000/svg" style="display:none" aria-hidden="true">

  <!-- Department Icons -->

  <!-- Sales (Lucide: target) -->
  <symbol id="icon-sales" viewBox="0 0 24 24" fill="none" stroke="currentColor" stroke-width="1.5" stroke-linecap="round" stroke-linejoin="round">
    <circle cx="12" cy="12" r="10"/>
    <circle cx="12" cy="12" r="6"/>
    <circle cx="12" cy="12" r="2"/>
  </symbol>

  <!-- Support (Lucide: headphones) -->
  <symbol id="icon-support" viewBox="0 0 24 24" fill="none" stroke="currentColor" stroke-width="1.5" stroke-linecap="round" stroke-linejoin="round">
    <path d="M3 14h3a2 2 0 0 1 2 2v3a2 2 0 0 1-2 2H5a2 2 0 0 1-2-2v-7a9 9 0 0 1 18 0v7a2 2 0 0 1-2 2h-1a2 2 0 0 1-2-2v-3a2 2 0 0 1 2-2h3"/>
  </symbol>

  <!-- Operations (Lucide: settings-2) -->
  <symbol id="icon-operations" viewBox="0 0 24 24" fill="none" stroke="currentColor" stroke-width="1.5" stroke-linecap="round" stroke-linejoin="round">
    <path d="M14 17H5"/>
    <path d="M19 7h-9"/>
    <circle cx="17" cy="17" r="3"/>
    <circle cx="7" cy="7" r="3"/>
  </symbol>

  <!-- Backoffice (Lucide: clipboard-list) -->
  <symbol id="icon-backoffice" viewBox="0 0 24 24" fill="none" stroke="currentColor" stroke-width="1.5" stroke-linecap="round" stroke-linejoin="round">
    <rect width="8" height="4" x="8" y="2" rx="1" ry="1"/>
    <path d="M16 4h2a2 2 0 0 1 2 2v14a2 2 0 0 1-2 2H6a2 2 0 0 1-2-2V6a2 2 0 0 1 2-2h2"/>
    <path d="M12 11h4"/>
    <path d="M12 16h4"/>
    <path d="M8 11h.01"/>
    <path d="M8 16h.01"/>
  </symbol>

  <!-- Finance (Lucide: coins) -->
  <symbol id="icon-finance" viewBox="0 0 24 24" fill="none" stroke="currentColor" stroke-width="1.5" stroke-linecap="round" stroke-linejoin="round">
    <path d="M13.744 17.736a6 6 0 1 1-7.48-7.48"/>
    <path d="M15 6h1v4"/>
    <path d="m6.134 14.768.866-.5 2 3.464"/>
    <circle cx="16" cy="8" r="6"/>
  </symbol>

  <!-- Compliance (Lucide: shield-check) -->
  <symbol id="icon-compliance" viewBox="0 0 24 24" fill="none" stroke="currentColor" stroke-width="1.5" stroke-linecap="round" stroke-linejoin="round">
    <path d="M20 13c0 5-3.5 7.5-7.66 8.95a1 1 0 0 1-.67-.01C7.5 20.5 4 18 4 13V6a1 1 0 0 1 1-1c2 0 4.5-1.2 6.24-2.72a1.17 1.17 0 0 1 1.52 0C14.51 3.81 17 5 19 5a1 1 0 0 1 1 1z"/>
    <path d="m9 12 2 2 4-4"/>
  </symbol>

  <!-- Prozess Icons -->

  <!-- Analyse (Lucide: scan-search) -->
  <symbol id="icon-analyse" viewBox="0 0 24 24" fill="none" stroke="currentColor" stroke-width="1.5" stroke-linecap="round" stroke-linejoin="round">
    <path d="M3 7V5a2 2 0 0 1 2-2h2"/>
    <path d="M17 3h2a2 2 0 0 1 2 2v2"/>
    <path d="M21 17v2a2 2 0 0 1-2 2h-2"/>
    <path d="M7 21H5a2 2 0 0 1-2-2v-2"/>
    <circle cx="12" cy="12" r="3"/>
    <path d="m16 16-1.9-1.9"/>
  </symbol>

  <!-- Strategie (Lucide: lightbulb) -->
  <symbol id="icon-strategie" viewBox="0 0 24 24" fill="none" stroke="currentColor" stroke-width="1.5" stroke-linecap="round" stroke-linejoin="round">
    <path d="M15 14c.2-1 .7-1.7 1.5-2.5 1-.9 1.5-2.2 1.5-3.5A6 6 0 0 0 6 8c0 1 .2 2.2 1.5 3.5.7.7 1.3 1.5 1.5 2.5"/>
    <path d="M9 18h6"/>
    <path d="M10 22h4"/>
  </symbol>

  <!-- Umsetzung (Lucide: wrench) -->
  <symbol id="icon-umsetzung" viewBox="0 0 24 24" fill="none" stroke="currentColor" stroke-width="1.5" stroke-linecap="round" stroke-linejoin="round">
    <path d="M14.7 6.3a1 1 0 0 0 0 1.4l1.6 1.6a1 1 0 0 0 1.4 0l3.106-3.105c.32-.322.863-.22.983.218a6 6 0 0 1-8.259 7.057l-7.91 7.91a1 1 0 0 1-2.999-3l7.91-7.91a6 6 0 0 1 7.057-8.259c.438.12.54.662.219.984z"/>
  </symbol>

  <!-- Integration (Lucide: git-merge) -->
  <symbol id="icon-integration" viewBox="0 0 24 24" fill="none" stroke="currentColor" stroke-width="1.5" stroke-linecap="round" stroke-linejoin="round">
    <circle cx="18" cy="18" r="3"/>
    <circle cx="6" cy="6" r="3"/>
    <path d="M6 21V9a9 9 0 0 0 9 9"/>
  </symbol>

  <!-- Optimierung (Lucide: trending-up) -->
  <symbol id="icon-optimierung" viewBox="0 0 24 24" fill="none" stroke="currentColor" stroke-width="1.5" stroke-linecap="round" stroke-linejoin="round">
    <path d="M16 7h6v6"/>
    <path d="m22 7-8.5 8.5-5-5L2 17"/>
  </symbol>

</svg>
